<?xml version="1.0" encoding="utf-8"?>
<!-- Generator: Adobe Illustrator 15.1.0, SVG Export Plug-In . SVG Version: 6.00 Build 0)  -->
<!DOCTYPE svg PUBLIC "-//W3C//DTD SVG 1.0//EN" "http://www.w3.org/TR/2001/REC-SVG-20010904/DTD/svg10.dtd">
<svg version="1.0" id="Слой_1" xmlns="http://www.w3.org/2000/svg" xmlns:xlink="http://www.w3.org/1999/xlink" x="0px" y="0px"
	 width="18px" height="18px" viewBox="0 0 18 18" enable-background="new 0 0 18 18" xml:space="preserve">
<path fill="#FFFFFF" d="M14.473,0H3.525C1.588,0,0,1.591,0,3.523v10.949C0,16.408,1.588,18,3.525,18h10.947
	C16.409,18,18,16.41,18,14.475V3.525C18,1.592,16.41,0,14.473,0z M12.414,4.608h-1.236c-0.969,0-1.152,0.459-1.152,1.141v1.488
	h2.309l-0.299,2.327h-2.012v5.997H7.61V9.564H5.596V7.237h2.016V5.513c0-1.996,1.219-3.083,3-3.083c0.857,0,1.592,0.063,1.803,0.094
	V4.608L12.414,4.608z"/>
</svg>
