<?xml version="1.0" encoding="utf-8"?>
<!-- Generator: Adobe Illustrator 15.1.0, SVG Export Plug-In . SVG Version: 6.00 Build 0)  -->
<!DOCTYPE svg PUBLIC "-//W3C//DTD SVG 1.0//EN" "http://www.w3.org/TR/2001/REC-SVG-20010904/DTD/svg10.dtd">
<svg version="1.0" id="Слой_1" xmlns="http://www.w3.org/2000/svg" xmlns:xlink="http://www.w3.org/1999/xlink" x="0px" y="0px"
	 width="18px" height="18px" viewBox="0 0 18 18" enable-background="new 0 0 18 18" xml:space="preserve">
<path fill="#FFFFFF" d="M14.472,0H3.526C1.588,0,0,1.591,0,3.523v10.949C0,16.408,1.588,18,3.526,18h10.946
	C16.409,18,18,16.41,18,14.475V3.525C18,1.592,16.41,0,14.472,0z M15.519,2.073h0.398v3.05l-3.04,0.01l-0.012-3.051L15.519,2.073z
	 M6.431,7.152c0.575-0.8,1.512-1.319,2.567-1.319c1.059,0,1.997,0.522,2.573,1.319c0.373,0.521,0.598,1.158,0.598,1.846
	c0,1.75-1.424,3.168-3.17,3.168c-1.746,0-3.168-1.418-3.168-3.168C5.833,8.311,6.054,7.673,6.431,7.152z M16.244,14.523
	c0,0.951-0.772,1.721-1.725,1.721H3.478c-0.953,0-1.725-0.77-1.725-1.721V7.152h2.687c-0.23,0.57-0.361,1.195-0.361,1.846
	c0,2.715,2.206,4.924,4.919,4.924c2.719,0,4.924-2.209,4.924-4.924c0-0.65-0.134-1.275-0.364-1.846h2.687V14.523z"/>
</svg>
