<?xml version="1.0" encoding="utf-8"?>
<!-- Generator: Adobe Illustrator 16.2.0, SVG Export Plug-In . SVG Version: 6.00 Build 0)  -->
<!DOCTYPE svg PUBLIC "-//W3C//DTD SVG 1.1//EN" "http://www.w3.org/Graphics/SVG/1.1/DTD/svg11.dtd">
<svg version="1.1" id="Слой_1" xmlns="http://www.w3.org/2000/svg" xmlns:xlink="http://www.w3.org/1999/xlink" x="0px" y="0px"
	 width="18px" height="18px" viewBox="0 0 18 18" enable-background="new 0 0 18 18" xml:space="preserve">
<g>
	<g>
		<g>
			<defs>
				<rect id="SVGID_1_" width="18" height="18"/>
			</defs>
			<clipPath id="SVGID_2_">
				<use xlink:href="#SVGID_1_"  overflow="visible"/>
			</clipPath>
			<path clip-path="url(#SVGID_2_)" fill="#FFFFFF" d="M3.526,0h10.947c1.938,0,3.528,1.592,3.528,3.526v10.948
				c0,1.937-1.591,3.527-3.528,3.527H3.526C1.588,18,0,16.409,0,14.473V3.524C0,1.591,1.588,0,3.526,0 M13.586,11.033
				c0-0.682-0.185-1.225-0.559-1.625c-0.375-0.403-0.874-0.67-1.494-0.806v-0.05c0.434-0.181,0.768-0.467,1.014-0.846
				c0.25-0.379,0.369-0.818,0.369-1.304c0-0.426-0.084-0.804-0.268-1.125C12.474,4.95,12.2,4.692,11.842,4.501
				c-0.327-0.178-0.687-0.3-1.068-0.35c-0.379-0.059-0.938-0.086-1.678-0.086H5.546v10.051h4.027c0.691,0,1.268-0.066,1.718-0.195
				c0.452-0.122,0.873-0.334,1.248-0.63c0.321-0.251,0.572-0.559,0.764-0.94C13.494,11.97,13.586,11.534,13.586,11.033
				 M10.352,6.904c0-0.159-0.043-0.331-0.12-0.495c-0.088-0.173-0.217-0.303-0.391-0.373C9.672,5.962,9.479,5.919,9.247,5.912
				C9.02,5.907,8.68,5.907,8.232,5.907H8.057v2.124h0.316c0.436,0,0.741,0,0.909-0.008C9.456,8.006,9.634,7.962,9.824,7.88
				c0.201-0.096,0.335-0.233,0.413-0.397C10.316,7.321,10.352,7.126,10.352,6.904 M10.987,10.989c0-0.315-0.065-0.552-0.189-0.733
				c-0.132-0.171-0.315-0.309-0.565-0.39C10.081,9.798,9.864,9.77,9.598,9.765C9.333,9.758,8.971,9.758,8.522,9.758H8.057v2.515
				h0.138c0.658,0,1.109-0.007,1.359-0.013c0.251-0.02,0.51-0.076,0.766-0.188c0.233-0.104,0.401-0.244,0.504-0.438
				C10.93,11.45,10.987,11.234,10.987,10.989"/>
		</g>
	</g>
</g>
</svg>
