<?xml version="1.0" encoding="utf-8"?>
<!-- Generator: Adobe Illustrator 15.1.0, SVG Export Plug-In . SVG Version: 6.00 Build 0)  -->
<!DOCTYPE svg PUBLIC "-//W3C//DTD SVG 1.0//EN" "http://www.w3.org/TR/2001/REC-SVG-20010904/DTD/svg10.dtd">
<svg version="1.0" id="Layer_1" xmlns="http://www.w3.org/2000/svg" xmlns:xlink="http://www.w3.org/1999/xlink" x="0px" y="0px"
	 width="18px" height="18px" viewBox="0 0 18 18" enable-background="new 0 0 18 18" xml:space="preserve">
<path fill="#ffffff" d="M14.471,0H3.526C1.588,0,0,1.59,0,3.524V14.47C0,16.408,1.588,17.998,3.526,18h10.945
	C16.41,18,18,16.41,18,14.472V3.525C18,1.591,16.41,0,14.471,0z M13.512,9.843L7.457,13.34c-0.143,0.082-0.309,0.13-0.484,0.13
	C6.435,13.47,6,13.035,6,12.497V5.502c0-0.538,0.435-0.973,0.972-0.973c0.124,0,0.244,0.023,0.354,0.067
	C7.417,4.632,7.5,4.68,7.575,4.739l5.936,3.417C13.803,8.323,14,8.638,14,9C14,9.361,13.803,9.676,13.512,9.843z"/>
</svg>
