<svg xmlns="http://www.w3.org/2000/svg" width="150" height="30" viewBox="0 0 150 30">
  <g fill="none" fill-rule="evenodd" stroke="#868686">
    <path d="M0,29.4854464 C0,29.4854464 26.9249133,20.3912451 36.4771079,17.5956379 C46.0293025,14.8000307 70.8993382,3 70.8993382,3 C70.8993382,3 88.2321654,4.29539292 106.969105,9.28175898 C125.706045,14.268125 150,29.4854464 150,29.4854464" stroke-linecap="square"/>
    <g transform="translate(29 12)">
      <polygon points="10.572 18 10.572 .849 3.955 .849 3.955 13.188 3.955 18"/>
      <path d="M13.993826 2.30737674L13.993826 18M10.6350905.843194231C10.6350905.843194231 11.0330137 1.6795009 12.3482075 2.30368456 13.6634013 2.92786821 13.9760573 3 13.9760573 3M.981177928 18L.981177928 2.83253797C.981177928 2.83253797 2.12281657 2.66861359 2.56477958 2.40775805 3.00674258 2.14690251 4.14838123.963190276 4.14838123.963190276M6 3L8.61229177 3M6 5L8.61229177 5M6 7L8.61229177 7M6 9L8.61229177 9M6 11L8.61229177 11M6 13L8.61229177 13M6 15L8.61229177 15"/>
    </g>
    <g transform="translate(46 12)">
      <polygon points="10.572 18 10.572 .849 3.955 .849 3.955 13.188 3.955 18"/>
      <path d="M13.993826 2.30737674L13.993826 18M10.6350905.843194231C10.6350905.843194231 11.0330137 1.6795009 12.3482075 2.30368456 13.6634013 2.92786821 13.9760573 3 13.9760573 3M.981177928 18L.981177928 2.83253797C.981177928 2.83253797 2.12281657 2.66861359 2.56477958 2.40775805 3.00674258 2.14690251 4.14838123.963190276 4.14838123.963190276M6 3L8.61229177 3M6 5L8.61229177 5M6 7L8.61229177 7M6 9L8.61229177 9M6 11L8.61229177 11M6 13L8.61229177 13M6 15L8.61229177 15"/>
    </g>
    <g transform="translate(62 12)">
      <polygon points="10.572 18 10.572 .849 3.955 .849 3.955 13.188 3.955 18"/>
      <path d="M13.993826 2.30737674L13.993826 18M10.6350905.843194231C10.6350905.843194231 11.0330137 1.6795009 12.3482075 2.30368456 13.6634013 2.92786821 13.9760573 3 13.9760573 3M.981177928 18L.981177928 2.83253797C.981177928 2.83253797 2.12281657 2.66861359 2.56477958 2.40775805 3.00674258 2.14690251 4.14838123.963190276 4.14838123.963190276M6 3L8.61229177 3M6 5L8.61229177 5M6 7L8.61229177 7M6 9L8.61229177 9M6 11L8.61229177 11M6 13L8.61229177 13M6 15L8.61229177 15"/>
    </g>
    <g transform="translate(84 23)">
      <polyline points=".189 6.679 .189 .254 12.39 .254 12.39 6.726"/>
      <path d="M3 3L9.55306925 3M3 5L9.55306925 5"/>
    </g>
    <path d="M150,29.5510558 L134.572416,29.5510558 C134.572416,29.5510558 134.394839,28.4684761 133.139852,27.4819061 C131.884865,26.4953362 129.972393,26.6693965 129.972393,26.6693965 C129.972393,26.6693965 129.275056,25.4013994 127.853404,25.4013994 C126.431752,25.4013994 125.846027,26.6252994 125.846027,26.6252994 L125.846027,24.8060885 L122.263448,24.8060885 L122.263448,28.0079658 L120.720358,29.5510558 L118.968556,29.5510558 L118.968556,28.1076916 L118.014072,27.153208 L115.364856,29.8024243 L115.364856,24 L111.957876,24 L111.957876,26.356659 L109.657237,26.356659 L109.657237,25.0402605 L106.5271,25.0402605 L106.5271,26.6035686 L100,26.6035686 L100,29.9559647 M106.932056,25.0132895 L107.297133,14 L108.432867,14 L109.011242,25.0132895 L106.932056,25.0132895 Z" stroke-linecap="round" stroke-linejoin="round"/>
    <path d="M27.7365516,29.5510558 L12.3089676,29.5510558 C12.3089676,29.5510558 12.1313907,28.4684761 10.8764036,27.4819061 C9.62141654,26.4953362 7.7089444,26.6693965 7.7089444,26.6693965 C7.7089444,26.6693965 7.01160762,25.4013994 5.58995539,25.4013994 C4.16830317,25.4013994 3.58257862,26.6252994 3.58257862,26.6252994 L3.58257862,24.8060885 L-3.19744231e-14,24.8060885 L-3.19744231e-14,30" stroke-linecap="round" stroke-linejoin="round" transform="matrix(-1 0 0 1 27.737 0)"/>
  </g>
</svg>
