<svg xmlns="http://www.w3.org/2000/svg" width="150" height="30" viewBox="0 0 150 30"><g fill="none" fill-rule="evenodd" stroke="#868686"><path d="M0 29.485446s26.924913-9.0942 36.477108-11.889808C46.029302 14.80003 70.899338 3 70.899338 3s17.332827 1.295393 36.069767 6.28176C125.706045 14.268124 150 29.485445 150 29.485445" stroke-linecap="square"/><path d="M39.572 30V12.849h-6.617V30z"/><path d="M42.993826 14.307377V30M39.63509 12.843194s.397924.836307 1.713117 1.46049C42.6634 14.92787 42.976057 15 42.976057 15m-12.99488 15V14.832538s1.14164-.163924 1.583603-.42478c.441963-.260855 1.5836-1.444568 1.5836-1.444568M35 15h2.612292M35 17h2.612292M35 19h2.612292M35 21h2.612292M35 23h2.612292M35 25h2.612292M35 27h2.612292M56.572 30V12.849h-6.617V30z"/><path d="M59.993826 14.307377V30M56.63509 12.843194s.397924.836307 1.713117 1.46049C59.6634 14.92787 59.976057 15 59.976057 15m-12.99488 15V14.832538s1.14164-.163924 1.583603-.42478c.441963-.260855 1.5836-1.444568 1.5836-1.444568M52 15h2.612292M52 17h2.612292M52 19h2.612292M52 21h2.612292M52 23h2.612292M52 25h2.612292M52 27h2.612292M72.572 30V12.849h-6.617V30z"/><path d="M75.993826 14.307377V30M72.63509 12.843194s.397924.836307 1.713117 1.46049C75.663402 14.92787 75.976057 15 75.976057 15m-12.99488 15V14.832538s1.14164-.163924 1.583603-.42478c.441963-.260855 1.5836-1.444568 1.5836-1.444568M68 15h2.612292M68 17h2.612292M68 19h2.612292M68 21h2.612292M68 23h2.612292M68 25h2.612292M68 27h2.612292M84.189 29.679v-6.425H96.39v6.472M87 26h6.55307M87 28h6.55307"/><path d="M150 29.551056h-15.427584s-.177577-1.08258-1.432564-2.06915c-1.254987-.98657-3.16746-.81251-3.16746-.81251s-.697336-1.267997-2.118988-1.267997-2.007377 1.2239-2.007377 1.2239v-1.81921h-3.58258v3.201874l-1.54309 1.54309h-1.7518V28.10769l-.954485-.954483-2.649216 2.649216V24h-3.40698v2.35666h-2.30064v-1.3164H106.5271v1.56331H100v3.352395m6.932056-4.942675L107.297133 14h1.135734l.578375 11.01329h-2.079186zM.000448 29.551056h15.427584s.177577-1.08258 1.432564-2.06915c1.254987-.98657 3.16746-.81251 3.16746-.81251s.697336-1.267997 2.11899-1.267997c1.42165 0 2.007375 1.2239 2.007375 1.2239v-1.81921H27.737V30" stroke-linecap="round" stroke-linejoin="round"/></g></svg>
