<svg xmlns="http://www.w3.org/2000/svg" width="21.3333" height="21.3333" version="1" viewBox="0 0 16.000000 16.000000"><path d="M0 .4798v.471l.5156.2312c.2755.1245.6755.2578.889.2934.3554.0533.3732.071.3732.3822.009.4445.009 11.7868 0 12.2313 0 .3554-.009.3643-.4178.471-.24.0622-.64.1955-.8978.3022L0 15.0578V16h6.8445v-.4444c0-.409-.0266-.4623-.2844-.6223-.16-.1066-.5244-.249-.8-.3378l-.5155-.151V8.533h.951l.6046.9956c1.2534 2.071 3.369 5.1645 3.9557 5.769.071.08.32.2666.551.4266l.418.2756 1.982-.0178 1.9735-.0266.0178-.4178.0178-.4178-.569-.3378c-.6666-.391-1.7244-1.5822-4.9067-5.5378-.142-.169-.5777-.729-.9688-1.2445l-.72-.9334 2.1512-2.729 2.1422-2.729.489-.142c.5866-.178 1.3332-.489 1.342-.569.009-.0267.018-.24.0268-.48l.0178-.4178h-3.049c-1.9644 0-3.049.0356-3.0578.089-.0888.8.0178.9332 1.0134 1.28l.6044.2132-.391.56c-.2134.3112-1.0312 1.5378-1.8312 2.72-1.1645 1.76-1.4845 2.169-1.68 2.2134-.1334.0267-.4267.1067-.6578.169l-.4267.1155V1.5464l.3822-.1067c.2045-.0622.5512-.2044.7734-.32.3912-.1955.4-.2133.4268-.6578l.0266-.4622H0v.48z"/></svg>